<svg xmlns="http://www.w3.org/2000/svg" width="1200" height="1200" viewBox="0 0 1200 1200" version="1.1"><path d="M 882.463 89.250 C 882.202 89.938, 882.103 271.588, 882.244 492.917 C 882.448 813.779, 882.753 895.418, 883.750 895.750 C 884.749 896.083, 885 814.906, 885 492.083 C 885 215.164, 884.675 88, 883.969 88 C 883.401 88, 882.724 88.563, 882.463 89.250 M 842.245 129.255 L 807 164.510 807 435.255 C 807 584.165, 806.663 706, 806.251 706 C 805.839 706, 696.939 597.438, 564.251 464.751 L 323 223.502 323 622.495 L 323 1021.489 358.500 986 L 394 950.511 394 679.814 C 394 530.931, 394.364 408.893, 394.809 408.618 C 395.255 408.343, 504.042 516.541, 636.559 649.059 C 769.076 781.576, 877.836 890, 878.249 890 C 878.662 890, 879 710.900, 879 492 C 879 273.100, 878.660 94, 878.245 94 C 877.829 94, 861.629 109.865, 842.245 129.255 M 842.245 131.255 L 808 165.511 808 436.196 C 808 634.557, 807.701 707.067, 806.882 707.573 C 806.217 707.984, 708.283 610.782, 564.882 467.382 L 324 226.502 324 622.495 L 324 1018.489 358.500 984 L 393 949.511 393 678.724 C 393 431.229, 393.138 407.884, 394.603 407.322 C 395.774 406.873, 460.827 471.328, 636.354 646.854 C 768.435 778.934, 876.839 887, 877.251 887 C 877.663 887, 878 709.250, 878 492 C 878 274.750, 877.660 97, 877.245 97 C 876.829 97, 861.079 112.415, 842.245 131.255 M 317 622.500 C 317 891.991, 317.334 1026.912, 318 1026.500 C 319.387 1025.643, 319.387 219.357, 318 218.500 C 317.334 218.088, 317 353.009, 317 622.500 M 585 740.800 C 585 741.240, 585.360 742.028, 585.800 742.550 C 586.240 743.072, 587.625 746.200, 588.878 749.500 C 590.131 752.800, 592.209 758.200, 593.496 761.500 C 594.783 764.800, 596.953 770.425, 598.318 774 C 599.683 777.575, 602.002 783.650, 603.472 787.500 C 604.942 791.350, 606.549 795.400, 607.044 796.500 C 607.540 797.600, 608.870 800.975, 610 804 C 611.130 807.025, 612.439 810.400, 612.908 811.500 C 613.377 812.600, 614.446 815.300, 615.283 817.500 C 617.714 823.885, 621.034 832.329, 621.966 834.500 C 622.439 835.600, 623.825 839.200, 625.046 842.500 C 626.268 845.800, 627.633 849.400, 628.080 850.500 C 628.527 851.600, 629.863 854.975, 631.050 858 C 632.236 861.025, 633.590 864.400, 634.058 865.500 C 636.267 870.686, 638.284 875.891, 639.675 880 C 640.513 882.475, 641.762 885.850, 642.450 887.500 C 643.138 889.150, 644.708 893.200, 645.938 896.500 C 647.168 899.800, 648.561 903.400, 649.034 904.500 C 650.176 907.160, 652.869 913.982, 658.506 928.500 C 661.068 935.100, 663.531 941.400, 663.979 942.500 C 664.427 943.600, 665.764 946.975, 666.950 950 C 668.137 953.025, 669.473 956.400, 669.920 957.500 C 670.367 958.600, 671.732 962.200, 672.954 965.500 C 674.175 968.800, 675.578 972.400, 676.071 973.500 C 676.564 974.600, 678.557 979.775, 680.500 985 C 682.443 990.225, 684.443 995.400, 684.945 996.500 C 685.821 998.423, 688.517 1005.353, 692.920 1017 C 694.063 1020.025, 694.999 1022.978, 694.999 1023.563 C 695 1024.534, 677.046 1033.538, 661 1040.616 C 657.425 1042.192, 649.162 1046.087, 642.637 1049.270 C 629.754 1055.555, 628.710 1055.583, 627.449 1049.681 C 627.075 1047.931, 626.463 1046.050, 626.089 1045.500 C 625.715 1044.950, 624.378 1041.800, 623.117 1038.500 C 621.856 1035.200, 620.468 1031.600, 620.032 1030.500 C 619.230 1028.477, 618.067 1025.380, 614.022 1014.500 C 612.795 1011.200, 611.219 1007.150, 610.518 1005.500 C 609.818 1003.850, 607.793 998.450, 606.019 993.500 C 604.244 988.550, 602.402 983.600, 601.924 982.500 C 601.446 981.400, 600.130 978.025, 599 975 C 596.779 969.056, 596.182 967.579, 593.557 961.546 C 592.612 959.371, 591.154 955.546, 590.319 953.046 C 589.484 950.546, 588.238 947.150, 587.550 945.500 C 586.862 943.850, 585.296 939.800, 584.071 936.500 C 582.846 933.200, 580.817 927.800, 579.563 924.500 C 578.309 921.200, 576.280 915.800, 575.054 912.500 C 573.828 909.200, 572.439 905.600, 571.966 904.500 C 571.494 903.400, 570.144 900.025, 568.968 897 C 567.791 893.975, 566.417 890.719, 565.914 889.764 C 565.411 888.809, 565 887.527, 565 886.915 C 565 886.303, 564.392 884.384, 563.649 882.651 C 562.906 880.918, 561.292 876.800, 560.062 873.500 C 558.832 870.200, 557.468 866.600, 557.032 865.500 C 555.441 861.486, 553.112 855.362, 550.948 849.500 C 549.729 846.200, 548.367 842.600, 547.920 841.500 C 547.473 840.400, 546.237 837.250, 545.174 834.500 C 540.244 821.747, 537.506 815.040, 534.970 809.500 C 533.459 806.200, 531.240 801.025, 530.040 798 C 527.068 790.511, 516.859 770, 516.104 770 C 515.768 770, 489.058 796.439, 456.747 828.753 L 398 887.506 398 917 L 398 946.493 451.454 893.046 C 495.846 848.660, 505.022 839.929, 505.577 841.549 C 505.945 842.622, 507.720 847.325, 509.522 852 C 511.324 856.675, 513.719 863.200, 514.846 866.500 C 518.208 876.346, 519.591 879.924, 520.315 880.648 C 520.692 881.025, 521 881.978, 521 882.766 C 521 883.553, 521.631 885.616, 522.401 887.349 C 523.172 889.082, 524.265 891.850, 524.831 893.500 C 526.473 898.291, 530.927 910.316, 531.870 912.500 C 533.025 915.179, 536.411 924.333, 538.528 930.500 C 539.471 933.250, 540.826 936.850, 541.538 938.500 C 542.250 940.150, 543.761 944.272, 544.896 947.659 C 546.885 953.595, 547.818 956.044, 550.551 962.500 C 551.249 964.150, 552.709 968.200, 553.795 971.500 C 554.881 974.800, 556.327 978.850, 557.009 980.500 C 557.691 982.150, 558.589 984.400, 559.005 985.500 C 560.523 989.518, 562.799 995.640, 564.952 1001.500 C 566.164 1004.800, 568.210 1010.200, 569.497 1013.500 C 570.784 1016.800, 572.751 1022.247, 573.867 1025.605 C 574.983 1028.962, 576.998 1034.200, 578.345 1037.245 C 579.691 1040.289, 581.122 1044.278, 581.524 1046.107 C 581.925 1047.937, 582.616 1050.124, 583.058 1050.967 C 583.500 1051.810, 584.852 1055.200, 586.064 1058.500 C 587.276 1061.800, 588.661 1065.400, 589.141 1066.500 C 590.539 1069.700, 596.049 1085.217, 596.953 1088.500 C 597.407 1090.150, 598.588 1093.300, 599.578 1095.500 C 600.567 1097.700, 602.080 1101.525, 602.938 1104 C 604.717 1109.126, 606.037 1109.394, 613.297 1106.101 C 628.332 1099.283, 655.096 1087.572, 658.180 1086.462 C 660.204 1085.734, 666.054 1083.246, 671.180 1080.934 C 681.793 1076.148, 687.544 1073.652, 704.500 1066.474 C 707.621 1065.153, 724.818 1057.488, 733.500 1053.548 C 736.250 1052.300, 739.625 1050.936, 741 1050.517 C 746.499 1048.841, 746.708 1047.358, 742.766 1038 C 740.146 1031.779, 739.583 1030.352, 737.046 1023.500 C 735.825 1020.200, 734.444 1016.600, 733.978 1015.500 C 731.030 1008.545, 726 994.802, 726 993.707 C 726 992.988, 725.605 991.972, 725.123 991.450 C 724.641 990.927, 723.288 987.676, 722.116 984.225 C 720.944 980.773, 719.585 977.173, 719.095 976.225 C 718.606 975.276, 717.528 972.700, 716.699 970.500 C 715.082 966.205, 711.408 956.768, 710.080 953.500 C 709.633 952.400, 708.272 948.800, 707.056 945.500 C 705.839 942.200, 703.797 936.800, 702.519 933.500 C 701.240 930.200, 699.190 924.800, 697.963 921.500 C 696.736 918.200, 695.367 914.600, 694.920 913.500 C 693.015 908.812, 688.098 896.018, 682.239 880.500 C 681.408 878.300, 680.172 875.150, 679.491 873.500 C 678.810 871.850, 677.447 868.250, 676.461 865.500 C 675.476 862.750, 674.294 860.072, 673.835 859.550 C 673.376 859.028, 673 857.971, 673 857.201 C 673 856.432, 672.372 854.384, 671.604 852.651 C 670.836 850.918, 669.201 846.800, 667.970 843.500 C 666.740 840.200, 665.362 836.600, 664.909 835.500 C 663.862 832.957, 655.514 811.250, 652.795 804 C 651.661 800.975, 650.355 797.600, 649.894 796.500 C 646.632 788.721, 644.980 783.494, 645.422 782.344 C 645.845 781.240, 656.428 781, 704.709 781 L 763.482 781 743 760.500 L 722.518 740 653.759 740 C 615.942 740, 585 740.360, 585 740.800 M 588.589 744.750 C 589.477 746.813, 591.253 751.425, 592.535 755 C 594.898 761.592, 597.354 767.867, 598.991 771.500 C 599.487 772.600, 601.961 778.900, 604.489 785.500 C 607.017 792.100, 610.416 800.913, 612.043 805.085 C 613.669 809.257, 615 813.009, 615 813.423 C 615 813.838, 616.350 817.093, 618 820.658 C 619.650 824.223, 621 827.501, 621 827.943 C 621 828.384, 621.929 830.940, 623.065 833.623 C 624.200 836.305, 625.507 839.400, 625.968 840.500 C 626.429 841.600, 628.469 847, 630.502 852.500 C 632.534 858, 634.859 863.748, 635.668 865.272 C 636.478 866.797, 638.623 872.197, 640.436 877.272 C 645.315 890.928, 651.630 907.439, 655.440 916.500 C 657.291 920.900, 660.675 929.450, 662.961 935.500 C 665.248 941.550, 667.514 947.400, 667.997 948.500 C 668.900 950.557, 673.781 963.132, 678.476 975.500 C 683.739 989.364, 687.237 998.394, 688.934 1002.500 C 689.736 1004.440, 692.457 1011.430, 693.995 1015.500 C 694.411 1016.600, 695.257 1018.759, 695.875 1020.297 C 696.494 1021.835, 697 1023.534, 697 1024.071 C 697 1024.994, 678.432 1034.448, 661.993 1041.894 C 657.872 1043.761, 649.421 1047.699, 643.214 1050.644 C 631.159 1056.365, 628.266 1057.024, 627.376 1054.250 C 625.540 1048.530, 618.277 1029.503, 616.883 1026.764 C 616.398 1025.809, 614.919 1021.984, 613.597 1018.264 C 608.251 1003.212, 605.319 995.399, 604.305 993.500 C 603.717 992.400, 602.942 990.126, 602.582 988.447 C 602.222 986.768, 600.819 983.205, 599.464 980.528 C 598.109 977.851, 597 975.078, 597 974.364 C 597 973.651, 596.367 971.590, 595.593 969.784 C 590.624 958.186, 588.712 953.515, 587.973 951.165 C 586.969 947.972, 579.814 929.096, 577.676 924 C 576.396 920.948, 567.830 898.398, 566.850 895.500 C 566.292 893.850, 565.466 891.600, 565.015 890.500 C 563.498 886.803, 559.175 875.551, 556.946 869.500 C 555.731 866.200, 553.459 860.350, 551.899 856.500 C 550.339 852.650, 548.749 848.163, 548.367 846.530 C 547.985 844.896, 546.892 842.196, 545.939 840.530 C 544.985 838.863, 542.992 833.900, 541.511 829.500 C 540.029 825.100, 538.408 821.072, 537.909 820.550 C 537.409 820.028, 537 818.920, 537 818.090 C 537 817.259, 535.675 813.861, 534.056 810.540 C 532.437 807.218, 530.173 802.134, 529.025 799.242 C 527.877 796.351, 524.450 788.910, 521.410 782.708 L 515.882 771.430 457.441 829.869 L 399 888.308 399 915.901 L 399 943.493 451.254 891.246 C 480.363 862.141, 504.281 839, 505.254 839 C 506.214 839, 507 839.719, 507 840.599 C 507 841.478, 507.622 843.616, 508.381 845.349 C 509.141 847.082, 510.451 850.075, 511.292 852 C 512.133 853.925, 513.724 858.200, 514.829 861.500 C 517.273 868.805, 524.475 888.617, 530.278 904 C 531.627 907.575, 534.399 915, 536.439 920.500 C 543.061 938.353, 543.802 940.333, 548.597 953 C 551.199 959.875, 554.355 968.425, 555.610 972 C 556.865 975.575, 558.987 981.425, 560.327 985 C 561.667 988.575, 564.436 996, 566.481 1001.500 C 574.446 1022.928, 578.791 1034.534, 581.458 1041.500 C 582.721 1044.800, 584.672 1049.975, 585.793 1053 C 595.906 1080.297, 598 1086.261, 598.004 1087.767 C 598.006 1088.720, 598.825 1090.850, 599.824 1092.500 C 600.823 1094.150, 602.506 1097.918, 603.563 1100.874 C 604.620 1103.830, 606.035 1106.460, 606.707 1106.718 C 607.379 1106.976, 610.758 1105.844, 614.215 1104.203 C 617.672 1102.562, 623.875 1099.765, 628 1097.988 C 632.125 1096.212, 638.200 1093.530, 641.500 1092.029 C 644.800 1090.528, 652 1087.370, 657.500 1085.012 C 663 1082.654, 669.300 1079.937, 671.500 1078.976 C 673.700 1078.014, 678.650 1075.876, 682.500 1074.224 C 704.567 1064.759, 712.133 1061.463, 717.729 1058.878 C 721.155 1057.295, 724.335 1056, 724.796 1056 C 725.257 1056, 728.274 1054.650, 731.500 1053 C 734.726 1051.350, 737.846 1049.990, 738.433 1049.978 C 739.020 1049.966, 740.601 1049.110, 741.946 1048.076 L 744.392 1046.196 742.583 1041.848 C 740.611 1037.106, 739.713 1034.764, 734.975 1022 C 733.240 1017.325, 730.902 1011.250, 729.779 1008.500 C 728.657 1005.750, 727.347 1002.487, 726.869 1001.250 C 726.391 1000.013, 725.604 997.987, 725.120 996.750 C 724.101 994.147, 722.173 988.995, 719.039 980.500 C 717.821 977.200, 715.539 971.350, 713.967 967.500 C 708.588 954.321, 702 937.069, 702 936.159 C 702 935.658, 700.856 932.662, 699.457 929.500 C 698.059 926.337, 695.621 920.094, 694.040 915.625 C 692.459 911.156, 690.167 905.025, 688.948 902 C 687.729 898.975, 686.063 894.700, 685.246 892.500 C 684.429 890.300, 683.381 887.600, 682.917 886.500 C 680.571 880.936, 675 866.191, 675 865.544 C 675 865.136, 674.382 863.384, 673.626 861.651 C 669.433 852.033, 661.793 832.298, 657.310 819.500 C 656.539 817.300, 655.047 813.631, 653.994 811.347 C 652.214 807.482, 649.208 799.515, 644.998 787.500 C 643.800 784.081, 643.562 782.105, 644.245 781.250 C 645.024 780.276, 657.968 780, 702.863 780 L 760.481 780 741 760.500 L 721.519 741 654.246 741 L 586.973 741 588.589 744.750" stroke="none" fill="#626262" fill-rule="evenodd"/><path d="M 0 600.001 L 0 1200.002 600.250 1199.751 L 1200.500 1199.500 1200.751 599.750 L 1201.002 0 600.501 0 L 0 0 0 600.001 M 0.497 600.500 C 0.497 930.500, 0.611 1065.649, 0.750 900.832 C 0.889 736.015, 0.889 466.015, 0.750 300.832 C 0.611 135.649, 0.497 270.500, 0.497 600.500 M 882.463 89.250 C 882.202 89.938, 882.103 271.588, 882.244 492.917 C 882.448 813.779, 882.753 895.418, 883.750 895.750 C 884.749 896.083, 885 814.906, 885 492.083 C 885 215.164, 884.675 88, 883.969 88 C 883.401 88, 882.724 88.563, 882.463 89.250 M 842.245 129.255 L 807 164.510 807 435.255 C 807 584.165, 806.663 706, 806.251 706 C 805.839 706, 696.939 597.438, 564.251 464.751 L 323 223.502 323 622.495 L 323 1021.489 358.500 986 L 394 950.511 394 679.814 C 394 530.931, 394.364 408.893, 394.809 408.618 C 395.255 408.343, 504.042 516.541, 636.559 649.059 C 769.076 781.576, 877.836 890, 878.249 890 C 878.662 890, 879 710.900, 879 492 C 879 273.100, 878.660 94, 878.245 94 C 877.829 94, 861.629 109.865, 842.245 129.255 M 317 622.500 C 317 891.991, 317.334 1026.912, 318 1026.500 C 319.387 1025.643, 319.387 219.357, 318 218.500 C 317.334 218.088, 317 353.009, 317 622.500 M 585 740.800 C 585 741.240, 585.360 742.028, 585.800 742.550 C 586.240 743.072, 587.625 746.200, 588.878 749.500 C 590.131 752.800, 592.209 758.200, 593.496 761.500 C 594.783 764.800, 596.953 770.425, 598.318 774 C 599.683 777.575, 602.002 783.650, 603.472 787.500 C 604.942 791.350, 606.549 795.400, 607.044 796.500 C 607.540 797.600, 608.870 800.975, 610 804 C 611.130 807.025, 612.439 810.400, 612.908 811.500 C 613.377 812.600, 614.446 815.300, 615.283 817.500 C 617.714 823.885, 621.034 832.329, 621.966 834.500 C 622.439 835.600, 623.825 839.200, 625.046 842.500 C 626.268 845.800, 627.633 849.400, 628.080 850.500 C 628.527 851.600, 629.863 854.975, 631.050 858 C 632.236 861.025, 633.590 864.400, 634.058 865.500 C 636.267 870.686, 638.284 875.891, 639.675 880 C 640.513 882.475, 641.762 885.850, 642.450 887.500 C 643.138 889.150, 644.708 893.200, 645.938 896.500 C 647.168 899.800, 648.561 903.400, 649.034 904.500 C 650.176 907.160, 652.869 913.982, 658.506 928.500 C 661.068 935.100, 663.531 941.400, 663.979 942.500 C 664.427 943.600, 665.764 946.975, 666.950 950 C 668.137 953.025, 669.473 956.400, 669.920 957.500 C 670.367 958.600, 671.732 962.200, 672.954 965.500 C 674.175 968.800, 675.578 972.400, 676.071 973.500 C 676.564 974.600, 678.557 979.775, 680.500 985 C 682.443 990.225, 684.443 995.400, 684.945 996.500 C 685.821 998.423, 688.517 1005.353, 692.920 1017 C 694.063 1020.025, 694.999 1022.978, 694.999 1023.563 C 695 1024.534, 677.046 1033.538, 661 1040.616 C 657.425 1042.192, 649.162 1046.087, 642.637 1049.270 C 629.754 1055.555, 628.710 1055.583, 627.449 1049.681 C 627.075 1047.931, 626.463 1046.050, 626.089 1045.500 C 625.715 1044.950, 624.378 1041.800, 623.117 1038.500 C 621.856 1035.200, 620.468 1031.600, 620.032 1030.500 C 619.230 1028.477, 618.067 1025.380, 614.022 1014.500 C 612.795 1011.200, 611.219 1007.150, 610.518 1005.500 C 609.818 1003.850, 607.793 998.450, 606.019 993.500 C 604.244 988.550, 602.402 983.600, 601.924 982.500 C 601.446 981.400, 600.130 978.025, 599 975 C 596.779 969.056, 596.182 967.579, 593.557 961.546 C 592.612 959.371, 591.154 955.546, 590.319 953.046 C 589.484 950.546, 588.238 947.150, 587.550 945.500 C 586.862 943.850, 585.296 939.800, 584.071 936.500 C 582.846 933.200, 580.817 927.800, 579.563 924.500 C 578.309 921.200, 576.280 915.800, 575.054 912.500 C 573.828 909.200, 572.439 905.600, 571.966 904.500 C 571.494 903.400, 570.144 900.025, 568.968 897 C 567.791 893.975, 566.417 890.719, 565.914 889.764 C 565.411 888.809, 565 887.527, 565 886.915 C 565 886.303, 564.392 884.384, 563.649 882.651 C 562.906 880.918, 561.292 876.800, 560.062 873.500 C 558.832 870.200, 557.468 866.600, 557.032 865.500 C 555.441 861.486, 553.112 855.362, 550.948 849.500 C 549.729 846.200, 548.367 842.600, 547.920 841.500 C 547.473 840.400, 546.237 837.250, 545.174 834.500 C 540.244 821.747, 537.506 815.040, 534.970 809.500 C 533.459 806.200, 531.240 801.025, 530.040 798 C 527.068 790.511, 516.859 770, 516.104 770 C 515.768 770, 489.058 796.439, 456.747 828.753 L 398 887.506 398 917 L 398 946.493 451.454 893.046 C 495.846 848.660, 505.022 839.929, 505.577 841.549 C 505.945 842.622, 507.720 847.325, 509.522 852 C 511.324 856.675, 513.719 863.200, 514.846 866.500 C 518.208 876.346, 519.591 879.924, 520.315 880.648 C 520.692 881.025, 521 881.978, 521 882.766 C 521 883.553, 521.631 885.616, 522.401 887.349 C 523.172 889.082, 524.265 891.850, 524.831 893.500 C 526.473 898.291, 530.927 910.316, 531.870 912.500 C 533.025 915.179, 536.411 924.333, 538.528 930.500 C 539.471 933.250, 540.826 936.850, 541.538 938.500 C 542.250 940.150, 543.761 944.272, 544.896 947.659 C 546.885 953.595, 547.818 956.044, 550.551 962.500 C 551.249 964.150, 552.709 968.200, 553.795 971.500 C 554.881 974.800, 556.327 978.850, 557.009 980.500 C 557.691 982.150, 558.589 984.400, 559.005 985.500 C 560.523 989.518, 562.799 995.640, 564.952 1001.500 C 566.164 1004.800, 568.210 1010.200, 569.497 1013.500 C 570.784 1016.800, 572.751 1022.247, 573.867 1025.605 C 574.983 1028.962, 576.998 1034.200, 578.345 1037.245 C 579.691 1040.289, 581.122 1044.278, 581.524 1046.107 C 581.925 1047.937, 582.616 1050.124, 583.058 1050.967 C 583.500 1051.810, 584.852 1055.200, 586.064 1058.500 C 587.276 1061.800, 588.661 1065.400, 589.141 1066.500 C 590.539 1069.700, 596.049 1085.217, 596.953 1088.500 C 597.407 1090.150, 598.588 1093.300, 599.578 1095.500 C 600.567 1097.700, 602.080 1101.525, 602.938 1104 C 604.717 1109.126, 606.037 1109.394, 613.297 1106.101 C 628.332 1099.283, 655.096 1087.572, 658.180 1086.462 C 660.204 1085.734, 666.054 1083.246, 671.180 1080.934 C 681.793 1076.148, 687.544 1073.652, 704.500 1066.474 C 707.621 1065.153, 724.818 1057.488, 733.500 1053.548 C 736.250 1052.300, 739.625 1050.936, 741 1050.517 C 746.499 1048.841, 746.708 1047.358, 742.766 1038 C 740.146 1031.779, 739.583 1030.352, 737.046 1023.500 C 735.825 1020.200, 734.444 1016.600, 733.978 1015.500 C 731.030 1008.545, 726 994.802, 726 993.707 C 726 992.988, 725.605 991.972, 725.123 991.450 C 724.641 990.927, 723.288 987.676, 722.116 984.225 C 720.944 980.773, 719.585 977.173, 719.095 976.225 C 718.606 975.276, 717.528 972.700, 716.699 970.500 C 715.082 966.205, 711.408 956.768, 710.080 953.500 C 709.633 952.400, 708.272 948.800, 707.056 945.500 C 705.839 942.200, 703.797 936.800, 702.519 933.500 C 701.240 930.200, 699.190 924.800, 697.963 921.500 C 696.736 918.200, 695.367 914.600, 694.920 913.500 C 693.015 908.812, 688.098 896.018, 682.239 880.500 C 681.408 878.300, 680.172 875.150, 679.491 873.500 C 678.810 871.850, 677.447 868.250, 676.461 865.500 C 675.476 862.750, 674.294 860.072, 673.835 859.550 C 673.376 859.028, 673 857.971, 673 857.201 C 673 856.432, 672.372 854.384, 671.604 852.651 C 670.836 850.918, 669.201 846.800, 667.970 843.500 C 666.740 840.200, 665.362 836.600, 664.909 835.500 C 663.862 832.957, 655.514 811.250, 652.795 804 C 651.661 800.975, 650.355 797.600, 649.894 796.500 C 646.632 788.721, 644.980 783.494, 645.422 782.344 C 645.845 781.240, 656.428 781, 704.709 781 L 763.482 781 743 760.500 L 722.518 740 653.759 740 C 615.942 740, 585 740.360, 585 740.800" stroke="none" fill="#ffffff" fill-rule="evenodd"/><path d="M 842.744 130.755 L 809 164.511 809 434.674 C 809 583.263, 808.727 705.548, 808.393 706.418 C 808.059 707.288, 807.272 708, 806.644 708 C 806.016 708, 697.164 599.663, 564.751 467.251 L 324 226.502 324 622.495 L 324 1018.489 358.500 984 L 393 949.511 393 678.339 C 393 462.322, 393.254 407.070, 394.250 406.691 C 394.949 406.424, 501.556 512.223, 636.250 646.857 L 877 887.498 877 492.249 C 877 274.862, 876.885 97, 876.744 97 C 876.604 97, 861.304 112.190, 842.744 130.755" stroke="none" fill="#000000" fill-rule="evenodd"/><path d="M 877.495 492 C 877.495 709.525, 877.610 798.512, 877.750 689.750 C 877.890 580.987, 877.890 403.012, 877.750 294.250 C 877.610 185.487, 877.495 274.475, 877.495 492 M 808.493 435.500 C 808.493 584.550, 808.609 645.376, 808.750 570.669 C 808.891 495.963, 808.891 374.013, 808.750 299.669 C 808.608 225.326, 808.493 286.450, 808.493 435.500 M 588.589 744.750 C 589.477 746.813, 591.253 751.425, 592.535 755 C 594.898 761.592, 597.354 767.867, 598.991 771.500 C 599.487 772.600, 601.961 778.900, 604.489 785.500 C 607.017 792.100, 610.416 800.913, 612.043 805.085 C 613.669 809.257, 615 813.009, 615 813.423 C 615 813.838, 616.350 817.093, 618 820.658 C 619.650 824.223, 621 827.501, 621 827.943 C 621 828.384, 621.929 830.940, 623.065 833.623 C 624.200 836.305, 625.507 839.400, 625.968 840.500 C 626.429 841.600, 628.469 847, 630.502 852.500 C 632.534 858, 634.859 863.748, 635.668 865.272 C 636.478 866.797, 638.623 872.197, 640.436 877.272 C 645.315 890.928, 651.630 907.439, 655.440 916.500 C 657.291 920.900, 660.675 929.450, 662.961 935.500 C 665.248 941.550, 667.514 947.400, 667.997 948.500 C 668.900 950.557, 673.781 963.132, 678.476 975.500 C 683.739 989.364, 687.237 998.394, 688.934 1002.500 C 689.736 1004.440, 692.457 1011.430, 693.995 1015.500 C 694.411 1016.600, 695.257 1018.759, 695.875 1020.297 C 696.494 1021.835, 697 1023.534, 697 1024.071 C 697 1024.994, 678.432 1034.448, 661.993 1041.894 C 657.872 1043.761, 649.421 1047.699, 643.214 1050.644 C 631.159 1056.365, 628.266 1057.024, 627.376 1054.250 C 625.540 1048.530, 618.277 1029.503, 616.883 1026.764 C 616.398 1025.809, 614.919 1021.984, 613.597 1018.264 C 608.251 1003.212, 605.319 995.399, 604.305 993.500 C 603.717 992.400, 602.942 990.126, 602.582 988.447 C 602.222 986.768, 600.819 983.205, 599.464 980.528 C 598.109 977.851, 597 975.078, 597 974.364 C 597 973.651, 596.367 971.590, 595.593 969.784 C 590.624 958.186, 588.712 953.515, 587.973 951.165 C 586.969 947.972, 579.814 929.096, 577.676 924 C 576.396 920.948, 567.830 898.398, 566.850 895.500 C 566.292 893.850, 565.466 891.600, 565.015 890.500 C 563.498 886.803, 559.175 875.551, 556.946 869.500 C 555.731 866.200, 553.459 860.350, 551.899 856.500 C 550.339 852.650, 548.749 848.163, 548.367 846.530 C 547.985 844.896, 546.892 842.196, 545.939 840.530 C 544.985 838.863, 542.992 833.900, 541.511 829.500 C 540.029 825.100, 538.408 821.072, 537.909 820.550 C 537.409 820.028, 537 818.920, 537 818.090 C 537 817.259, 535.675 813.861, 534.056 810.540 C 532.437 807.218, 530.173 802.134, 529.025 799.242 C 527.877 796.351, 524.450 788.910, 521.410 782.708 L 515.882 771.430 457.441 829.869 L 399 888.308 399 915.901 L 399 943.493 451.254 891.246 C 480.363 862.141, 504.281 839, 505.254 839 C 506.214 839, 507 839.719, 507 840.599 C 507 841.478, 507.622 843.616, 508.381 845.349 C 509.141 847.082, 510.451 850.075, 511.292 852 C 512.133 853.925, 513.724 858.200, 514.829 861.500 C 517.273 868.805, 524.475 888.617, 530.278 904 C 531.627 907.575, 534.399 915, 536.439 920.500 C 543.061 938.353, 543.802 940.333, 548.597 953 C 551.199 959.875, 554.355 968.425, 555.610 972 C 556.865 975.575, 558.987 981.425, 560.327 985 C 561.667 988.575, 564.436 996, 566.481 1001.500 C 574.446 1022.928, 578.791 1034.534, 581.458 1041.500 C 582.721 1044.800, 584.672 1049.975, 585.793 1053 C 595.906 1080.297, 598 1086.261, 598.004 1087.767 C 598.006 1088.720, 598.825 1090.850, 599.824 1092.500 C 600.823 1094.150, 602.506 1097.918, 603.563 1100.874 C 604.620 1103.830, 606.035 1106.460, 606.707 1106.718 C 607.379 1106.976, 610.758 1105.844, 614.215 1104.203 C 617.672 1102.562, 623.875 1099.765, 628 1097.988 C 632.125 1096.212, 638.200 1093.530, 641.500 1092.029 C 644.800 1090.528, 652 1087.370, 657.500 1085.012 C 663 1082.654, 669.300 1079.937, 671.500 1078.976 C 673.700 1078.014, 678.650 1075.876, 682.500 1074.224 C 704.567 1064.759, 712.133 1061.463, 717.729 1058.878 C 721.155 1057.295, 724.335 1056, 724.796 1056 C 725.257 1056, 728.274 1054.650, 731.500 1053 C 734.726 1051.350, 737.846 1049.990, 738.433 1049.978 C 739.020 1049.966, 740.601 1049.110, 741.946 1048.076 L 744.392 1046.196 742.583 1041.848 C 740.611 1037.106, 739.713 1034.764, 734.975 1022 C 733.240 1017.325, 730.902 1011.250, 729.779 1008.500 C 728.657 1005.750, 727.347 1002.487, 726.869 1001.250 C 726.391 1000.013, 725.604 997.987, 725.120 996.750 C 724.101 994.147, 722.173 988.995, 719.039 980.500 C 717.821 977.200, 715.539 971.350, 713.967 967.500 C 708.588 954.321, 702 937.069, 702 936.159 C 702 935.658, 700.856 932.662, 699.457 929.500 C 698.059 926.337, 695.621 920.094, 694.040 915.625 C 692.459 911.156, 690.167 905.025, 688.948 902 C 687.729 898.975, 686.063 894.700, 685.246 892.500 C 684.429 890.300, 683.381 887.600, 682.917 886.500 C 680.571 880.936, 675 866.191, 675 865.544 C 675 865.136, 674.382 863.384, 673.626 861.651 C 669.433 852.033, 661.793 832.298, 657.310 819.500 C 656.539 817.300, 655.047 813.631, 653.994 811.347 C 652.214 807.482, 649.208 799.515, 644.998 787.500 C 643.800 784.081, 643.562 782.105, 644.245 781.250 C 645.024 780.276, 657.968 780, 702.863 780 L 760.481 780 741 760.500 L 721.519 741 654.246 741 L 586.973 741 588.589 744.750" stroke="none" fill="#015002" fill-rule="evenodd"/></svg>